<svg xmlns="http://www.w3.org/2000/svg" xmlns:xlink="http://www.w3.org/1999/xlink" width="500" zoomAndPan="magnify" viewBox="0 0 375 374.999991" height="500" preserveAspectRatio="xMidYMid meet" version="1.0"><defs><clipPath id="0b25c2fe9b"><path d="M 6 53.671875 L 368 53.671875 L 368 201 L 6 201 Z M 6 53.671875 " clip-rule="nonzero"/></clipPath><clipPath id="5669e5bd91"><path d="M 0 98 L 375 98 L 375 321.421875 L 0 321.421875 Z M 0 98 " clip-rule="nonzero"/></clipPath></defs><g clip-path="url(#0b25c2fe9b)"><path fill="#d6e865" d="M 162.96875 191.890625 C 163.839844 192.558594 164.738281 193.191406 165.660156 193.785156 C 166.582031 194.382812 167.53125 194.9375 168.5 195.457031 C 169.464844 195.972656 170.453125 196.449219 171.460938 196.886719 C 172.46875 197.324219 173.496094 197.71875 174.535156 198.074219 C 175.574219 198.425781 176.628906 198.738281 177.691406 199.003906 C 178.757812 199.269531 179.832031 199.492188 180.917969 199.671875 C 182 199.851562 183.089844 199.984375 184.183594 200.074219 C 185.277344 200.164062 186.375 200.210938 187.472656 200.210938 C 188.570312 200.210938 189.667969 200.164062 190.761719 200.074219 C 191.859375 199.984375 192.945312 199.851562 194.03125 199.671875 C 195.113281 199.492188 196.1875 199.269531 197.253906 199.003906 C 198.320312 198.738281 199.371094 198.425781 200.414062 198.074219 C 201.453125 197.71875 202.476562 197.324219 203.484375 196.886719 C 204.492188 196.449219 205.480469 195.972656 206.449219 195.457031 C 207.417969 194.9375 208.363281 194.382812 209.285156 193.785156 C 210.207031 193.191406 211.105469 192.558594 211.976562 191.890625 L 367.484375 70.722656 C 366.566406 69.410156 365.570312 68.15625 364.5 66.964844 C 363.429688 65.773438 362.292969 64.648438 361.089844 63.59375 C 359.882812 62.539062 358.621094 61.558594 357.296875 60.65625 C 355.976562 59.75 354.605469 58.929688 353.183594 58.1875 C 351.761719 57.449219 350.300781 56.796875 348.800781 56.234375 C 347.300781 55.671875 345.773438 55.199219 344.21875 54.816406 C 342.664062 54.4375 341.089844 54.152344 339.5 53.960938 C 337.910156 53.769531 336.3125 53.671875 334.710938 53.671875 L 40.289062 53.671875 C 38.59375 53.675781 36.902344 53.785156 35.222656 54.003906 C 33.539062 54.222656 31.878906 54.546875 30.238281 54.976562 C 28.597656 55.40625 26.988281 55.9375 25.414062 56.574219 C 23.84375 57.207031 22.316406 57.9375 20.835938 58.765625 C 19.355469 59.59375 17.933594 60.511719 16.566406 61.519531 C 15.203125 62.53125 13.910156 63.621094 12.683594 64.792969 C 11.460938 65.96875 10.3125 67.214844 9.246094 68.53125 C 8.179688 69.851562 7.203125 71.230469 6.308594 72.675781 Z M 162.96875 191.890625 " fill-opacity="1" fill-rule="nonzero"/></g><g clip-path="url(#5669e5bd91)"><path fill="#d6e865" d="M 228.371094 213.101562 C 226.917969 214.214844 225.425781 215.269531 223.886719 216.261719 C 222.351562 217.253906 220.773438 218.179688 219.160156 219.042969 C 217.546875 219.90625 215.902344 220.703125 214.222656 221.429688 C 212.546875 222.15625 210.839844 222.816406 209.105469 223.402344 C 207.375 223.992188 205.621094 224.507812 203.847656 224.953125 C 202.070312 225.398438 200.28125 225.769531 198.476562 226.070312 C 196.671875 226.367188 194.855469 226.589844 193.035156 226.738281 C 191.210938 226.890625 189.382812 226.964844 187.554688 226.964844 C 185.722656 226.964844 183.898438 226.890625 182.074219 226.738281 C 180.25 226.589844 178.4375 226.367188 176.628906 226.070312 C 174.824219 225.769531 173.035156 225.398438 171.261719 224.953125 C 169.484375 224.507812 167.730469 223.992188 166 223.402344 C 164.265625 222.816406 162.5625 222.15625 160.882812 221.429688 C 159.203125 220.703125 157.558594 219.90625 155.945312 219.042969 C 154.332031 218.179688 152.757812 217.253906 151.21875 216.261719 C 149.679688 215.269531 148.1875 214.214844 146.734375 213.101562 L 0.140625 101.621094 L 0.140625 281.179688 C 0.140625 282.496094 0.203125 283.804688 0.332031 285.113281 C 0.460938 286.421875 0.65625 287.722656 0.910156 289.011719 C 1.167969 290.300781 1.488281 291.574219 1.871094 292.835938 C 2.25 294.09375 2.695312 295.328125 3.195312 296.542969 C 3.699219 297.757812 4.261719 298.945312 4.882812 300.105469 C 5.5 301.265625 6.175781 302.390625 6.90625 303.484375 C 7.636719 304.578125 8.417969 305.632812 9.253906 306.648438 C 10.089844 307.664062 10.96875 308.640625 11.898438 309.570312 C 12.828125 310.5 13.800781 311.378906 14.820312 312.214844 C 15.835938 313.050781 16.890625 313.832031 17.984375 314.5625 C 19.078125 315.292969 20.203125 315.96875 21.363281 316.585938 C 22.523438 317.207031 23.710938 317.769531 24.925781 318.273438 C 26.140625 318.773438 27.375 319.21875 28.632812 319.597656 C 29.894531 319.980469 31.167969 320.300781 32.457031 320.554688 C 33.746094 320.8125 35.046875 321.007812 36.355469 321.136719 C 37.664062 321.261719 38.972656 321.328125 40.289062 321.328125 L 334.710938 321.328125 C 336.027344 321.328125 337.335938 321.261719 338.644531 321.136719 C 339.953125 321.007812 341.253906 320.8125 342.542969 320.554688 C 343.832031 320.300781 345.105469 319.980469 346.367188 319.597656 C 347.625 319.21875 348.859375 318.773438 350.074219 318.273438 C 351.289062 317.769531 352.476562 317.207031 353.636719 316.585938 C 354.796875 315.96875 355.921875 315.292969 357.015625 314.5625 C 358.109375 313.832031 359.164062 313.050781 360.179688 312.214844 C 361.199219 311.378906 362.171875 310.5 363.101562 309.570312 C 364.03125 308.640625 364.910156 307.664062 365.746094 306.648438 C 366.582031 305.632812 367.363281 304.578125 368.09375 303.484375 C 368.824219 302.390625 369.5 301.265625 370.117188 300.105469 C 370.738281 298.945312 371.300781 297.757812 371.804688 296.542969 C 372.304688 295.328125 372.75 294.09375 373.128906 292.835938 C 373.511719 291.574219 373.832031 290.300781 374.085938 289.011719 C 374.34375 287.722656 374.539062 286.421875 374.667969 285.113281 C 374.792969 283.804688 374.859375 282.496094 374.859375 281.179688 L 374.859375 98.972656 Z M 228.371094 213.101562 " fill-opacity="1" fill-rule="nonzero"/></g></svg>