<svg xmlns="http://www.w3.org/2000/svg" xmlns:xlink="http://www.w3.org/1999/xlink" width="500" zoomAndPan="magnify" viewBox="0 0 375 374.999991" height="500" preserveAspectRatio="xMidYMid meet" version="1.0"><path fill="#dd3da2" d="M 163.996094 19.238281 C 83.4375 28.164062 17.796875 93.167969 8.074219 173.601562 C 7.761719 176.125 7.5 178.65625 7.292969 181.191406 C 7.089844 183.726562 6.9375 186.265625 6.839844 188.808594 C 6.742188 191.351562 6.699219 193.894531 6.710938 196.441406 C 6.726562 198.984375 6.792969 201.527344 6.914062 204.070312 C 7.035156 206.613281 7.207031 209.148438 7.4375 211.683594 C 7.667969 214.21875 7.953125 216.746094 8.289062 219.265625 C 8.628906 221.789062 9.019531 224.304688 9.464844 226.808594 C 9.910156 229.3125 10.410156 231.808594 10.964844 234.292969 C 11.515625 236.773438 12.121094 239.246094 12.78125 241.703125 C 13.441406 244.160156 14.152344 246.605469 14.914062 249.03125 C 15.675781 251.457031 16.492188 253.867188 17.359375 256.261719 C 18.226562 258.652344 19.144531 261.027344 20.109375 263.378906 C 21.078125 265.730469 22.097656 268.0625 23.164062 270.371094 C 24.234375 272.683594 25.351562 274.96875 26.515625 277.230469 C 27.683594 279.492188 28.898438 281.726562 30.160156 283.9375 C 31.421875 286.144531 32.730469 288.328125 34.085938 290.480469 C 35.441406 292.632812 36.839844 294.757812 38.289062 296.851562 C 39.734375 298.945312 41.226562 301.003906 42.761719 303.035156 C 44.292969 305.0625 45.871094 307.058594 47.492188 309.023438 C 49.113281 310.984375 50.773438 312.910156 52.476562 314.800781 C 54.179688 316.691406 55.921875 318.546875 57.703125 320.359375 C 59.488281 322.175781 61.308594 323.953125 63.164062 325.691406 C 65.023438 327.429688 66.917969 329.128906 68.851562 330.785156 C 70.78125 332.441406 72.746094 334.054688 74.746094 335.628906 C 76.75 337.199219 78.78125 338.730469 80.847656 340.214844 C 82.914062 341.699219 85.011719 343.140625 87.136719 344.535156 C 89.265625 345.933594 91.421875 347.28125 93.605469 348.585938 C 95.792969 349.886719 98.003906 351.144531 100.246094 352.351562 C 102.484375 353.558594 104.746094 354.71875 107.035156 355.832031 C 109.324219 356.941406 111.636719 358.003906 113.972656 359.015625 C 116.304688 360.027344 118.660156 360.992188 121.039062 361.902344 C 123.414062 362.8125 125.808594 363.671875 128.21875 364.480469 C 137.109375 365.902344 139.953125 360.394531 139.953125 355.605469 L 139.953125 325.574219 C 90.746094 336.261719 80.269531 301.78125 80.269531 301.78125 C 72.121094 281.167969 60.550781 275.660156 60.550781 275.660156 C 44.378906 264.644531 61.808594 265.011719 61.808594 265.011719 C 79.566406 266.269531 88.984375 283.308594 88.984375 283.308594 C 104.441406 310.308594 130.546875 302.308594 140.667969 298.046875 C 142.265625 286.5 146.957031 278.679688 151.859375 274.242188 C 112.363281 269.800781 71.027344 254.523438 71.027344 186.855469 C 71.027344 167.136719 77.78125 151.328125 89.324219 138.714844 C 87.550781 134.277344 81.324219 115.804688 91.097656 91.824219 C 91.097656 91.824219 106.023438 87.019531 139.953125 109.945312 C 147.191406 107.996094 154.527344 106.527344 161.960938 105.546875 C 169.394531 104.5625 176.859375 104.070312 184.355469 104.070312 C 191.851562 104.070312 199.320312 104.5625 206.75 105.546875 C 214.183594 106.527344 221.519531 107.996094 228.757812 109.945312 C 262.714844 87.019531 277.613281 91.824219 277.613281 91.824219 C 287.375 115.804688 281.160156 134.277344 279.386719 138.714844 C 290.933594 151.292969 297.683594 167.136719 297.683594 186.855469 C 297.683594 254.699219 256.109375 269.625 216.511719 274.066406 C 222.898438 279.574219 228.757812 290.414062 228.757812 306.925781 L 228.757812 355.605469 C 228.757812 360.394531 231.601562 366.078125 240.667969 364.480469 C 243.242188 363.617188 245.796875 362.699219 248.332031 361.71875 C 250.863281 360.738281 253.371094 359.699219 255.855469 358.605469 C 258.34375 357.511719 260.800781 356.359375 263.234375 355.152344 C 265.667969 353.945312 268.070312 352.683594 270.445312 351.363281 C 272.820312 350.046875 275.160156 348.675781 277.472656 347.25 C 279.785156 345.824219 282.0625 344.347656 284.308594 342.820312 C 286.550781 341.289062 288.757812 339.710938 290.929688 338.078125 C 293.101562 336.449219 295.234375 334.769531 297.332031 333.042969 C 299.425781 331.3125 301.480469 329.539062 303.492188 327.714844 C 305.507812 325.894531 307.476562 324.023438 309.40625 322.113281 C 311.332031 320.199219 313.214844 318.242188 315.054688 316.246094 C 316.890625 314.246094 318.683594 312.207031 320.429688 310.125 C 322.171875 308.042969 323.871094 305.925781 325.515625 303.765625 C 327.164062 301.605469 328.761719 299.410156 330.308594 297.179688 C 331.855469 294.945312 333.351562 292.679688 334.792969 290.378906 C 336.238281 288.078125 337.628906 285.746094 338.964844 283.382812 C 340.300781 281.019531 341.582031 278.625 342.808594 276.203125 C 344.035156 273.78125 345.203125 271.332031 346.320312 268.855469 C 347.433594 266.378906 348.492188 263.875 349.492188 261.351562 C 350.492188 258.828125 351.433594 256.28125 352.316406 253.710938 C 353.199219 251.144531 354.023438 248.558594 354.785156 245.953125 C 355.550781 243.34375 356.253906 240.722656 356.898438 238.085938 C 357.542969 235.449219 358.128906 232.796875 358.652344 230.132812 C 359.175781 227.464844 359.636719 224.789062 360.035156 222.105469 C 360.4375 219.417969 360.773438 216.726562 361.050781 214.023438 C 361.328125 211.320312 361.542969 208.617188 361.695312 205.902344 C 361.851562 203.191406 361.941406 200.480469 361.96875 197.765625 C 361.996094 195.046875 361.964844 192.332031 361.867188 189.621094 C 361.773438 186.90625 361.613281 184.195312 361.394531 181.488281 C 361.175781 178.78125 360.894531 176.082031 360.550781 173.386719 C 360.207031 170.695312 359.800781 168.007812 359.332031 165.332031 C 358.867188 162.660156 358.339844 159.996094 357.75 157.34375 C 357.160156 154.691406 356.511719 152.058594 355.804688 149.4375 C 355.09375 146.8125 354.324219 144.210938 353.496094 141.625 C 352.667969 139.039062 351.777344 136.472656 350.832031 133.925781 C 349.886719 131.382812 348.882812 128.859375 347.820312 126.359375 C 346.757812 123.859375 345.640625 121.386719 344.464844 118.9375 C 343.289062 116.492188 342.058594 114.070312 340.769531 111.679688 C 339.484375 109.285156 338.144531 106.925781 336.75 104.59375 C 335.355469 102.265625 333.910156 99.96875 332.410156 97.703125 C 330.910156 95.441406 329.359375 93.210938 327.757812 91.019531 C 326.15625 88.824219 324.503906 86.671875 322.804688 84.554688 C 321.101562 82.4375 319.355469 80.359375 317.558594 78.320312 C 315.761719 76.285156 313.921875 74.289062 312.035156 72.335938 C 310.148438 70.382812 308.21875 68.472656 306.242188 66.609375 C 304.269531 64.746094 302.25 62.925781 300.195312 61.15625 C 298.136719 59.382812 296.039062 57.660156 293.902344 55.984375 C 291.765625 54.308594 289.589844 52.683594 287.378906 51.105469 C 285.167969 49.527344 282.921875 48.003906 280.640625 46.53125 C 278.359375 45.058594 276.046875 43.636719 273.699219 42.269531 C 271.351562 40.902344 268.976562 39.589844 266.570312 38.332031 C 264.164062 37.074219 261.730469 35.871094 259.265625 34.722656 C 256.804688 33.578125 254.320312 32.488281 251.808594 31.453125 C 249.296875 30.421875 246.761719 29.445312 244.207031 28.527344 C 241.648438 27.613281 239.074219 26.753906 236.476562 25.957031 C 233.882812 25.15625 231.269531 24.417969 228.640625 23.738281 C 226.011719 23.058594 223.367188 22.441406 220.710938 21.882812 C 218.050781 21.324219 215.382812 20.828125 212.703125 20.390625 C 210.023438 19.957031 207.332031 19.582031 204.636719 19.269531 C 201.9375 18.957031 199.234375 18.707031 196.527344 18.519531 C 193.816406 18.328125 191.105469 18.203125 188.390625 18.136719 C 185.675781 18.074219 182.960938 18.070312 180.246094 18.132812 C 177.53125 18.191406 174.816406 18.3125 172.109375 18.5 C 169.398438 18.683594 166.695312 18.929688 163.996094 19.238281 Z M 163.996094 19.238281 " fill-opacity="1" fill-rule="nonzero"/></svg>