<svg xmlns="http://www.w3.org/2000/svg" xmlns:xlink="http://www.w3.org/1999/xlink" width="500" zoomAndPan="magnify" viewBox="0 0 375 374.999991" height="500" preserveAspectRatio="xMidYMid meet" version="1.0"><path fill="#d6e865" d="M 187.484375 33.769531 C 237.546875 33.769531 243.476562 33.964844 263.246094 34.863281 C 281.527344 35.695312 291.453125 38.75 298.0625 41.320312 C 306.816406 44.71875 313.058594 48.785156 319.621094 55.34375 C 326.183594 61.90625 330.246094 68.148438 333.644531 76.902344 C 336.210938 83.507812 339.265625 93.4375 340.101562 111.71875 C 341.003906 131.488281 341.191406 137.417969 341.191406 187.480469 C 341.191406 237.539062 341 243.472656 340.101562 263.242188 C 339.269531 281.523438 336.210938 291.449219 333.644531 298.058594 C 330.246094 306.8125 326.179688 313.054688 319.621094 319.617188 C 313.058594 326.179688 306.816406 330.242188 298.0625 333.640625 C 291.457031 336.210938 281.527344 339.261719 263.246094 340.097656 C 243.480469 341 237.550781 341.1875 187.484375 341.1875 C 137.414062 341.1875 131.488281 340.996094 111.71875 340.097656 C 93.441406 339.265625 83.511719 336.210938 76.90625 333.640625 C 68.152344 330.242188 61.910156 326.175781 55.347656 319.617188 C 48.785156 313.058594 44.722656 306.8125 41.320312 298.058594 C 38.753906 291.453125 35.703125 281.523438 34.867188 263.242188 C 33.964844 243.472656 33.773438 237.539062 33.773438 187.480469 C 33.773438 137.417969 33.964844 131.488281 34.867188 111.71875 C 35.699219 93.4375 38.753906 83.511719 41.320312 76.902344 C 44.722656 68.148438 48.785156 61.90625 55.347656 55.34375 C 61.910156 48.78125 68.152344 44.71875 76.90625 41.320312 C 83.511719 38.75 93.441406 35.699219 111.71875 34.863281 C 131.492188 33.964844 137.417969 33.769531 187.484375 33.769531 M 187.484375 -0.0117188 C 136.5625 -0.0117188 130.175781 0.207031 110.179688 1.117188 C 90.226562 2.027344 76.597656 5.199219 64.667969 9.832031 C 52.339844 14.625 41.882812 21.039062 31.457031 31.457031 C 21.035156 41.882812 14.625 52.335938 9.832031 64.667969 C 5.199219 76.597656 2.03125 90.226562 1.117188 110.179688 C 0.207031 130.179688 -0.0117188 136.5625 -0.0117188 187.484375 C -0.0117188 238.402344 0.207031 244.789062 1.117188 264.785156 C 2.027344 284.742188 5.199219 298.371094 9.832031 310.296875 C 14.625 322.625 21.039062 333.085938 31.457031 343.507812 C 41.882812 353.933594 52.335938 360.34375 64.667969 365.132812 C 76.597656 369.769531 90.226562 372.9375 110.179688 373.847656 C 130.179688 374.761719 136.5625 374.976562 187.484375 374.976562 C 238.402344 374.976562 244.789062 374.761719 264.785156 373.847656 C 284.742188 372.941406 298.371094 369.769531 310.296875 365.132812 C 322.625 360.34375 333.085938 353.929688 343.507812 343.507812 C 353.933594 333.085938 360.34375 322.628906 365.132812 310.296875 C 369.769531 298.371094 372.9375 284.742188 373.847656 264.785156 C 374.761719 244.785156 374.976562 238.402344 374.976562 187.484375 C 374.976562 136.5625 374.761719 130.175781 373.847656 110.179688 C 372.941406 90.226562 369.769531 76.597656 365.132812 64.667969 C 360.34375 52.339844 353.929688 41.882812 343.507812 31.457031 C 333.085938 21.035156 322.628906 14.625 310.296875 9.832031 C 298.371094 5.199219 284.742188 2.03125 264.785156 1.117188 C 244.789062 0.207031 238.402344 -0.0117188 187.484375 -0.0117188 Z M 187.484375 -0.0117188 " fill-opacity="1" fill-rule="nonzero"/><path fill="#d6e865" d="M 187.484375 91.203125 C 134.3125 91.203125 91.203125 134.3125 91.203125 187.484375 C 91.203125 240.65625 134.3125 283.761719 187.484375 283.761719 C 240.65625 283.761719 283.761719 240.65625 283.761719 187.484375 C 283.761719 134.308594 240.65625 91.203125 187.484375 91.203125 Z M 187.484375 249.980469 C 152.964844 249.980469 124.984375 222 124.984375 187.484375 C 124.984375 152.964844 152.964844 124.984375 187.484375 124.984375 C 222 124.984375 249.980469 152.964844 249.980469 187.484375 C 249.980469 222 222 249.980469 187.484375 249.980469 Z M 187.484375 249.980469 " fill-opacity="1" fill-rule="nonzero"/><path fill="#d6e865" d="M 310.070312 87.398438 C 310.070312 88.136719 310.03125 88.871094 309.960938 89.605469 C 309.886719 90.335938 309.78125 91.066406 309.636719 91.789062 C 309.492188 92.511719 309.3125 93.226562 309.101562 93.929688 C 308.886719 94.636719 308.636719 95.328125 308.355469 96.007812 C 308.074219 96.691406 307.757812 97.355469 307.414062 98.003906 C 307.066406 98.65625 306.6875 99.285156 306.277344 99.898438 C 305.867188 100.511719 305.429688 101.101562 304.960938 101.671875 C 304.496094 102.242188 304 102.789062 303.480469 103.308594 C 302.957031 103.828125 302.414062 104.324219 301.84375 104.792969 C 301.273438 105.257812 300.683594 105.699219 300.070312 106.105469 C 299.457031 106.515625 298.824219 106.894531 298.175781 107.242188 C 297.527344 107.589844 296.859375 107.902344 296.179688 108.1875 C 295.5 108.46875 294.804688 108.714844 294.101562 108.929688 C 293.394531 109.144531 292.679688 109.324219 291.957031 109.464844 C 291.234375 109.609375 290.507812 109.71875 289.773438 109.789062 C 289.039062 109.863281 288.304688 109.898438 287.570312 109.898438 C 286.832031 109.898438 286.097656 109.863281 285.363281 109.789062 C 284.628906 109.71875 283.902344 109.609375 283.179688 109.464844 C 282.457031 109.324219 281.742188 109.144531 281.035156 108.929688 C 280.332031 108.714844 279.640625 108.46875 278.957031 108.1875 C 278.277344 107.902344 277.613281 107.589844 276.960938 107.242188 C 276.3125 106.894531 275.679688 106.515625 275.066406 106.105469 C 274.457031 105.699219 273.863281 105.257812 273.292969 104.792969 C 272.726562 104.324219 272.179688 103.828125 271.65625 103.308594 C 271.136719 102.789062 270.644531 102.242188 270.175781 101.671875 C 269.707031 101.101562 269.269531 100.511719 268.859375 99.898438 C 268.449219 99.285156 268.070312 98.65625 267.726562 98.003906 C 267.378906 97.355469 267.0625 96.691406 266.78125 96.007812 C 266.5 95.328125 266.25 94.636719 266.035156 93.929688 C 265.824219 93.226562 265.644531 92.511719 265.5 91.789062 C 265.355469 91.066406 265.25 90.335938 265.175781 89.605469 C 265.105469 88.871094 265.066406 88.136719 265.066406 87.398438 C 265.066406 86.660156 265.105469 85.925781 265.175781 85.191406 C 265.25 84.460938 265.355469 83.730469 265.5 83.007812 C 265.644531 82.285156 265.824219 81.570312 266.035156 80.867188 C 266.25 80.160156 266.5 79.46875 266.78125 78.789062 C 267.0625 78.105469 267.378906 77.441406 267.726562 76.792969 C 268.070312 76.140625 268.449219 75.511719 268.859375 74.898438 C 269.269531 74.285156 269.707031 73.695312 270.175781 73.125 C 270.644531 72.554688 271.136719 72.007812 271.65625 71.488281 C 272.179688 70.964844 272.726562 70.472656 273.292969 70.003906 C 273.863281 69.539062 274.457031 69.097656 275.066406 68.691406 C 275.679688 68.28125 276.3125 67.902344 276.960938 67.554688 C 277.613281 67.207031 278.277344 66.890625 278.957031 66.609375 C 279.640625 66.328125 280.332031 66.082031 281.035156 65.867188 C 281.742188 65.652344 282.457031 65.472656 283.179688 65.328125 C 283.902344 65.1875 284.628906 65.078125 285.363281 65.007812 C 286.097656 64.933594 286.832031 64.898438 287.570312 64.898438 C 288.304688 64.898438 289.039062 64.933594 289.773438 65.007812 C 290.507812 65.078125 291.234375 65.1875 291.957031 65.328125 C 292.679688 65.472656 293.394531 65.652344 294.101562 65.867188 C 294.804688 66.082031 295.5 66.328125 296.179688 66.609375 C 296.859375 66.890625 297.527344 67.207031 298.175781 67.554688 C 298.824219 67.902344 299.457031 68.28125 300.070312 68.691406 C 300.683594 69.097656 301.273438 69.539062 301.84375 70.003906 C 302.414062 70.472656 302.957031 70.964844 303.480469 71.488281 C 304 72.007812 304.496094 72.554688 304.960938 73.125 C 305.429688 73.695312 305.867188 74.285156 306.277344 74.898438 C 306.6875 75.511719 307.066406 76.140625 307.414062 76.792969 C 307.757812 77.441406 308.074219 78.105469 308.355469 78.789062 C 308.636719 79.46875 308.886719 80.160156 309.101562 80.867188 C 309.3125 81.570312 309.492188 82.285156 309.636719 83.007812 C 309.78125 83.730469 309.886719 84.460938 309.960938 85.191406 C 310.03125 85.925781 310.070312 86.660156 310.070312 87.398438 Z M 310.070312 87.398438 " fill-opacity="1" fill-rule="nonzero"/></svg>